<?xml version="1.0" encoding="UTF-8"?>
<svg xmlns="http://www.w3.org/2000/svg" xmlns:xlink="http://www.w3.org/1999/xlink" width="20pt" height="20pt" viewBox="0 0 20 20" version="1.1">
<g id="surface1">
<path style=" stroke:none;fill-rule:nonzero;fill:rgb(100%,100%,100%);fill-opacity:1;" d="M 2.222656 7.5 C 2.222656 5.8125 3.589844 4.445312 5.277344 4.445312 L 16.945312 4.445312 C 18.632812 4.445312 20 5.8125 20 7.5 L 20 12.222656 L 18.890625 12.222656 L 18.890625 7.5 C 18.890625 6.425781 18.019531 5.554688 16.945312 5.554688 L 5.277344 5.554688 C 4.203125 5.554688 3.332031 6.425781 3.332031 7.5 L 3.332031 14.722656 C 3.332031 15.796875 4.203125 16.667969 5.277344 16.667969 L 10 16.667969 L 10 17.777344 L 5.277344 17.777344 C 3.589844 17.777344 2.222656 16.410156 2.222656 14.722656 Z M 12.777344 13.332031 C 11.855469 13.332031 11.109375 14.078125 11.109375 15 L 11.109375 19.445312 C 11.109375 20.363281 11.855469 21.109375 12.777344 21.109375 L 19.445312 21.109375 C 20.363281 21.109375 21.109375 20.363281 21.109375 19.445312 L 21.109375 15 C 21.109375 14.078125 20.363281 13.332031 19.445312 13.332031 Z M 5.164062 7.386719 C 5.378906 7.167969 5.730469 7.167969 5.949219 7.386719 L 8.890625 10.324219 L 8.890625 8.332031 C 8.890625 8.027344 9.136719 7.777344 9.445312 7.777344 C 9.75 7.777344 10 8.027344 10 8.332031 L 10 11.667969 C 10 11.972656 9.75 12.222656 9.445312 12.222656 L 6.109375 12.222656 C 5.804688 12.222656 5.554688 11.972656 5.554688 11.667969 C 5.554688 11.359375 5.804688 11.109375 6.109375 11.109375 L 8.101562 11.109375 L 5.164062 8.171875 C 4.945312 7.953125 4.945312 7.601562 5.164062 7.386719 Z M 5.164062 7.386719 "/>
</g>
</svg>
