<?xml version="1.0" encoding="UTF-8"?>
<svg xmlns="http://www.w3.org/2000/svg" xmlns:xlink="http://www.w3.org/1999/xlink" width="20pt" height="20pt" viewBox="0 0 20 20" version="1.1">
<g id="surface1">
<path style=" stroke:none;fill-rule:nonzero;fill:rgb(100%,100%,100%);fill-opacity:1;" d="M 8.5 9 C 9.328125 9 10 8.328125 10 7.5 L 10 3.5 C 10 2.671875 9.328125 2 8.5 2 L 2.5 2 C 1.671875 2 1 2.671875 1 3.5 L 1 7.5 C 1 8.152344 1.417969 8.707031 2 8.914062 L 2.019531 8.921875 C 2.167969 8.972656 2.332031 9 2.5 9 Z M 15.25 6 L 11 6 L 11 5 L 15.25 5 C 16.769531 5 18 6.230469 18 7.75 L 18 14.25 C 18 15.769531 16.769531 17 15.25 17 L 4.75 17 C 3.230469 17 2 15.769531 2 14.25 L 2 9.949219 C 2.160156 9.984375 2.328125 10 2.5 10 L 3 10 L 3 14.25 C 3 15.214844 3.785156 16 4.75 16 L 15.25 16 C 16.214844 16 17 15.214844 17 14.25 L 17 7.75 C 17 6.785156 16.214844 6 15.25 6 Z M 14 12.292969 L 11.355469 9.644531 C 11.160156 9.453125 10.839844 9.453125 10.644531 9.644531 C 10.453125 9.839844 10.453125 10.160156 10.644531 10.355469 L 13.292969 13 L 11.5 13 C 11.222656 13 11 13.222656 11 13.5 C 11 13.777344 11.222656 14 11.5 14 L 14.5 14 C 14.507812 14 14.515625 14 14.523438 14 C 14.582031 13.996094 14.636719 13.984375 14.691406 13.960938 C 14.75 13.9375 14.804688 13.902344 14.855469 13.855469 C 14.902344 13.804688 14.9375 13.75 14.960938 13.691406 C 14.984375 13.632812 15 13.570312 15 13.503906 C 15 13.503906 15 13.5 15 13.5 L 15 10.5 C 15 10.222656 14.777344 10 14.5 10 C 14.222656 10 14 10.222656 14 10.5 Z M 14 12.292969 "/>
</g>
</svg>
