<svg fill="#fff" width="24.000000000000004" height="24.000000000000004" xmlns="http://www.w3.org/2000/svg">

 <g>
  <title>Layer 1</title>
  <path id="svg_2" d="m18.1,7.291a1,1 0 0 0 -1.42,1.415a4.662,4.662 0 0 1 0,6.588a1,1 0 0 0 1.42,1.415a6.666,6.666 0 0 0 0,-9.418z"/>
  <path id="svg_3" d="m13.82,0.2a12.054,12.054 0 0 0 -7.554,4.8l-1.266,0a5.008,5.008 0 0 0 -5,5l0,4a5.008,5.008 0 0 0 5,5l1.266,0a12.059,12.059 0 0 0 7.554,4.8a0.917,0.917 0 0 0 0.181,0.017a1,1 0 0 0 1,-1l0,-21.631a1,1 0 0 0 -1.181,-0.986zm-0.82,21.335a10.083,10.083 0 0 1 -5.371,-4.08a1,1 0 0 0 -0.837,-0.455l-1.792,0a3,3 0 0 1 -3,-3l0,-4a3,3 0 0 1 3,-3l1.8,0a1,1 0 0 0 0.837,-0.453a10.079,10.079 0 0 1 5.363,-4.082l0,19.07z"/>
 </g>

</svg>